<svg xmlns="http://www.w3.org/2000/svg" version="1.1" xmlns:xlink="http://www.w3.org/1999/xlink" xmlns:svgjs="http://svgjs.dev/svgjs" width="1440" height="560" preserveAspectRatio="none" viewBox="0 0 1440 560"><g mask="url(&quot;#SvgjsMask1022&quot;)" fill="none"><rect width="1440" height="560" x="0" y="0" fill="rgba(55, 37, 21, 1)"></rect><path d="M0,365.972C92.012,378.261,180.32,447.47,268.024,417.053C358.278,385.752,430.342,300.171,455.475,208.008C479.772,118.912,432.45,28.284,397.334,-57.128C369.097,-125.809,314.234,-174.754,272.777,-236.363C224.084,-308.725,214.273,-420.832,132.386,-450.864C51.236,-480.626,-28.918,-404.989,-110.698,-377.003C-188.216,-350.476,-271.093,-341.339,-335.531,-290.739C-408.703,-233.28,-480.796,-162.962,-499.368,-71.798C-518.253,20.902,-486.656,119.353,-435.254,198.774C-387.353,272.784,-307.946,319.506,-225.65,351.119C-153.829,378.708,-76.261,355.787,0,365.972" fill="#2c1e11"></path><path d="M1440 1211.6779999999999C1557.277 1183.978 1621.473 1064.416 1716.77 990.662 1801.663 924.96 1918.466 896.251 1969.5549999999998 801.84 2021.72 705.44 2009.446 588.857 1992.83 480.515 1976.336 372.96799999999996 1932.384 275.585 1874.6979999999999 183.332 1808.055 76.755 1749.808-50.46199999999999 1632.527-95.68600000000004 1513.456-141.60000000000002 1376.708-104.904 1259.777-53.783000000000015 1151.176-6.303999999999974 1084.833 95.738 1001.6179999999999 180.14 911.866 271.171 768.015 334.255 752.132 461.1 736.232 588.081 871.447 678.963 924.581 795.384 977.733 911.844 964.581 1064.366 1064.17 1144.8029999999999 1165.2060000000001 1226.408 1313.603 1241.5320000000002 1440 1211.6779999999999" fill="#422c19"></path></g><defs><mask id="SvgjsMask1022"><rect width="1440" height="560" fill="#ffffff"></rect></mask></defs></svg>