<svg xmlns="http://www.w3.org/2000/svg" version="1.1" xmlns:xlink="http://www.w3.org/1999/xlink" xmlns:svgjs="http://svgjs.dev/svgjs" width="1440" height="560" preserveAspectRatio="none" viewBox="0 0 1440 560"><g mask="url(&quot;#SvgjsMask1080&quot;)" fill="none"><rect width="1440" height="560" x="0" y="0" fill="rgba(55, 37, 21, 1)"></rect><path d="M0,480.039C88.121,466.181,155.852,404.698,238.479,371.08C345.111,327.696,507.162,358.165,555.894,253.868C604.477,149.89,453.952,50.611,441.526,-63.482C428.37,-184.28,541.383,-311.858,482.691,-418.255C425.348,-522.208,284.131,-558.195,165.543,-563.788C57.157,-568.9,-27.77,-479.654,-131.313,-447.212C-232.235,-415.591,-361.988,-453.526,-433.893,-375.97C-505.697,-298.524,-467.615,-173.926,-481.726,-69.262C-495.683,34.264,-551.935,137.596,-516.374,235.82C-480.094,336.031,-388.444,408.95,-292.1,454.516C-201.919,497.167,-98.547,495.536,0,480.039" fill="#2c1e11"></path><path d="M1440 993.3530000000001C1520.637 976.342 1593.489 948.165 1670.351 918.433 1768.483 880.473 1901.577 885.994 1953.746 794.62 2005.258 704.396 1931.666 594.226 1913.894 491.86400000000003 1896.732 393.01599999999996 1912.143 283.394 1851.158 203.73000000000002 1789.078 122.63499999999999 1687.185 75.93200000000002 1585.837 63.32499999999999 1491.333 51.56999999999999 1407.32 110.68299999999999 1315.837 137.14100000000002 1223.885 163.73399999999998 1122.758 161.07 1046.739 219.23700000000002 962.0889999999999 284.008 888.926 373.144 870.255 478.08299999999997 851.38 584.172 899.083 688.596 945.969 785.616 992.025 880.919 1039.82 989.837 1137.393 1030.866 1233.024 1071.078 1338.492 1014.767 1440 993.3530000000001" fill="#422c19"></path></g><defs><mask id="SvgjsMask1080"><rect width="1440" height="560" fill="#ffffff"></rect></mask></defs></svg>