<svg xmlns="http://www.w3.org/2000/svg" version="1.1" xmlns:xlink="http://www.w3.org/1999/xlink" xmlns:svgjs="http://svgjs.dev/svgjs" width="1440" height="560" preserveAspectRatio="none" viewBox="0 0 1440 560"><g mask="url(&quot;#SvgjsMask1018&quot;)" fill="none"><rect width="1440" height="560" x="0" y="0" fill="rgba(55, 37, 21, 1)"></rect><path d="M0,588.453C112.038,576.007,215.911,542.804,317.676,494.313C432.796,439.458,575.846,403.154,630.586,287.979C685.372,172.707,623.998,38.562,593.143,-85.281C565.156,-197.615,539.509,-314.478,459.615,-398.258C381.456,-480.218,270.331,-521.189,158.783,-540.766C55.193,-558.946,-48.952,-539.56,-148.264,-504.941C-243.742,-471.658,-319.078,-407.462,-399.487,-346.157C-501.205,-268.606,-656.886,-223.479,-681.95,-98.05C-706.797,26.292,-569.84,120.851,-515.722,235.522C-462.498,348.299,-469.435,499.89,-366.521,570.318C-263.486,640.829,-124.089,602.238,0,588.453" fill="#2c1e11"></path><path d="M1440 1252.701C1568.289 1250.96 1643.165 1106.403 1731.126 1013.001 1799.967 939.902 1849.262 857.108 1896.163 768.322 1946.034 673.914 2015.7939999999999 584.225 2014.019 477.469 2012.153 365.245 1965.161 253.142 1886.267 173.308 1809.429 95.555 1695.762 76.85300000000001 1590.17 48.56900000000002 1487.04 20.94399999999996 1384.325-4.801000000000045 1278.669 10.55499999999995 1161.564 27.575000000000045 1027.239 46.136999999999944 956.129 140.723 885.294 234.94299999999998 929.9639999999999 367.887 921.624 485.469 913.989 593.113 867.848 702.731 909.195 802.41 950.9870000000001 903.163 1060.571 950.4110000000001 1143.75 1020.973 1241.331 1103.7530000000002 1312.049 1254.438 1440 1252.701" fill="#422c19"></path></g><defs><mask id="SvgjsMask1018"><rect width="1440" height="560" fill="#ffffff"></rect></mask></defs></svg>