<svg xmlns="http://www.w3.org/2000/svg" version="1.1" xmlns:xlink="http://www.w3.org/1999/xlink" xmlns:svgjs="http://svgjs.dev/svgjs" width="1440" height="560" preserveAspectRatio="none" viewBox="0 0 1440 560"><g mask="url(&quot;#SvgjsMask1061&quot;)" fill="none"><rect width="1440" height="560" x="0" y="0" fill="rgba(55, 37, 21, 1)"></rect><path d="M0,361.803C84.53,383.604,173.938,429.772,254.329,395.743C335.939,361.198,384.171,272.18,411.152,187.767C436.576,108.223,422.605,22.759,399.162,-57.391C378.044,-129.592,329.978,-186.567,284.203,-246.263C235.411,-309.892,199.251,-394.021,122.71,-417.913C46.012,-441.854,-29.674,-385.408,-108.282,-368.775C-195.114,-350.402,-301.091,-378.075,-363.555,-315.022C-425.921,-252.069,-403.037,-147.468,-414.568,-59.606C-425.938,27.025,-479.765,124.394,-430.714,196.7C-380.42,270.839,-265.661,251.145,-182.008,283.211C-119.027,307.353,-65.313,344.959,0,361.803" fill="#2c1e11"></path><path d="M1440 941.011C1523.607 951.994 1608.48 974.192 1687.809 945.5989999999999 1776.935 913.475 1861.785 856.5830000000001 1906.285 772.9449999999999 1951.749 687.494 1957.5259999999998 582.419 1930.49 489.478 1905.012 401.892 1833.588 337.872 1762.939 280.172 1701.305 229.83499999999998 1629.03 198.26100000000002 1551.574 180.01299999999998 1477.442 162.548 1403.372 168.762 1327.729 177.639 1237.411 188.238 1126.07 167.65300000000002 1067.086 236.868 1008.038 306.159 1055.3319999999999 413.02 1049.708 503.884 1044.638 585.784 1000.4839999999999 670.521 1035.654 744.659 1070.75 818.64 1157.115 849.794 1230.773 885.563 1297.017 917.731 1366.986 931.4200000000001 1440 941.011" fill="#422c19"></path></g><defs><mask id="SvgjsMask1061"><rect width="1440" height="560" fill="#ffffff"></rect></mask></defs></svg>