<svg xmlns="http://www.w3.org/2000/svg" version="1.1" xmlns:xlink="http://www.w3.org/1999/xlink" xmlns:svgjs="http://svgjs.dev/svgjs" width="1440" height="560" preserveAspectRatio="none" viewBox="0 0 1440 560"><g mask="url(&quot;#SvgjsMask1005&quot;)" fill="none"><rect width="1440" height="560" x="0" y="0" fill="rgba(87, 60, 38, 1)"></rect><path d="M0,463.286C95.636,458.955,209.603,500.583,280.035,435.742C352.047,369.447,313.664,248.826,336.373,153.616C353.699,80.976,396.598,17.505,397.601,-57.166C398.724,-140.791,392.231,-229.527,342.422,-296.71C291.228,-365.761,208.487,-405.38,124.82,-425.098C43.799,-444.193,-40.661,-433.454,-119.056,-405.468C-194.432,-378.56,-261.265,-332.191,-311.026,-269.506C-359.439,-208.52,-369.564,-130.23,-395.759,-56.902C-429.364,37.169,-505.414,124.144,-486.701,222.269C-467.216,324.439,-390.033,415.711,-296.825,461.868C-206.326,506.684,-100.885,467.855,0,463.286" fill="#46301e"></path><path d="M1440 939.2919999999999C1512.065 930.854 1583.02 916.749 1644.177 877.706 1705.4569999999999 838.5840000000001 1749.21 780.673 1786.353 718.174 1827.239 649.378 1865.048 578.109 1869.709 498.217 1875.029 407.03200000000004 1871.296 307.027 1814.513 235.48200000000003 1757.155 163.21300000000002 1658.673 142.56 1569.286 119.69400000000002 1482.563 97.50999999999999 1392.829 81.65699999999998 1306.56 105.54500000000002 1219.547 129.639 1146.5819999999999 186.305 1086.226 253.45299999999997 1025.055 321.50800000000004 980.975 401.909 960.092 491 937.832 585.968 916.135 692.326 963.348 777.6800000000001 1010.002 862.024 1111.312 898.4590000000001 1202.595 929.409 1279.155 955.367 1359.7069999999999 948.693 1440 939.2919999999999" fill="#68482e"></path></g><defs><mask id="SvgjsMask1005"><rect width="1440" height="560" fill="#ffffff"></rect></mask></defs></svg>