<svg xmlns="http://www.w3.org/2000/svg" version="1.1" xmlns:xlink="http://www.w3.org/1999/xlink" xmlns:svgjs="http://svgjs.dev/svgjs" width="1440" height="560" preserveAspectRatio="none" viewBox="0 0 1440 560"><g mask="url(&quot;#SvgjsMask1009&quot;)" fill="none"><rect width="1440" height="560" x="0" y="0" fill="rgba(55, 37, 21, 1)"></rect><path d="M0,672.315C122.052,649.245,201.082,536.435,287.25,446.97C355.964,375.627,392.847,286.477,449.725,205.382C522.446,101.698,660.621,30.362,668.113,-96.06C675.617,-222.688,566.918,-323.474,486.899,-421.901C404.563,-523.178,328.088,-663.696,197.998,-674.32C64.919,-685.188,-14.667,-521.971,-138.887,-473.006C-246.507,-430.584,-377.01,-474.428,-472.976,-409.836C-580.381,-337.544,-696.857,-229.134,-693.499,-99.71C-690.069,32.481,-514.88,89.812,-456.928,208.672C-401.314,322.735,-455.762,480.195,-366.688,570.578C-275.81,662.792,-127.216,696.362,0,672.315" fill="#2c1e11"></path><path d="M1440 1088.115C1540.295 1078.479 1632.542 1044.871 1722.702 999.892 1822.77 949.97 1934.434 907.864 1992.674 812.398 2053.469 712.7429999999999 2064.98 587.994 2044.0430000000001 473.152 2023.517 360.563 1959.2730000000001 260.978 1877.539 180.87 1799.99 104.86399999999998 1695.594 73.197 1594.789 32.83600000000001 1482.994-11.924999999999955 1372.872-95.33399999999995 1255.554-68.16499999999996 1137.442-40.81200000000001 1068.1390000000001 77.49599999999998 992.573 172.303 919.862 263.527 854.281 358.619 825.314 471.621 793.951 593.969 763.946 729.99 820.691 842.829 877.029 954.8589999999999 1003.502 1011.615 1120.089 1057.791 1221.7359999999999 1098.05 1331.172 1098.571 1440 1088.115" fill="#422c19"></path></g><defs><mask id="SvgjsMask1009"><rect width="1440" height="560" fill="#ffffff"></rect></mask></defs></svg>